# ProBuilder 4.0.5
# https://unity3d.com/unity/features/worldbuilding/probuilder
# 19/08/2020 5:23:23 PM

mtllib ./hub.mtl
o hub

g Cube
v -332.56 26.12 -66.36
v -346.71 26.12 -66.36
v -332.56 38.51 -66.36
v -346.71 38.51 -66.36
v -346.71 26.12 -79.96
v -346.71 38.51 -79.96
v -332.56 26.12 -79.96
v -332.56 38.51 -79.96
v -337.7227 42.97772 -71.32206
v -341.5473 42.97772 -71.32206
v -337.7227 42.97772 -74.99795
v -341.5473 42.97772 -74.99795

vt 0 0
vt -14.15 0
vt 0 12.39
vt -14.15 12.39
vt -13.6 0
vt -13.6 12.39
vt 14.15 0
vt 14.15 12.39
vt 13.6 0
vt 13.6 12.39
vt 5.16275 -4.962059
vt 8.987274 -4.962059
vt 5.16275 -8.637947
vt 8.987274 -8.637947
vt 0 -13.6
vt -14.15 -13.6
vt 0 -8.290387
vt 14.15 -8.290387
vt 5.16275 -14.9674
vt 8.987274 -14.9674
vt 8.107683 -13.6
vt 8.107683 0
vt 14.93517 -8.637947
vt 14.93517 -4.962059
vt 2.592105 0
vt 2.592105 -13.6
vt -4.23536 -4.962059
vt -4.23536 -8.637947
vt 14.15 -1.81651
vt 0 -1.81651
vt 8.987274 4.860503
vt 5.16275 4.860503

vn 0 0 1
vn -1 0 0
vn 0 0 -1
vn 1 0 0
vn 0 1 0
vn 0 -1 0
vn 0 0.7431551 0.6691193
vn 0.6543731 0.7561719 0
vn -0.6543749 0.7561703 0
vn 0 0.7431546 -0.6691197

g Cube
usemtl ProBuilderDefault
f 3/3/1 4/4/1 2/2/1 1/1/1
f 4/3/2 6/6/2 5/5/2 2/1/2
f 6/8/3 8/3/3 7/1/3 5/7/3
f 8/10/4 3/3/4 1/1/4 7/9/4
f 11/13/5 12/14/5 10/12/5 9/11/5
f 1/1/6 2/2/6 5/16/6 7/15/6
f 9/19/7 10/20/7 4/18/7 3/17/7
f 11/23/8 9/24/8 3/22/8 8/21/8
f 10/27/9 12/28/9 6/26/9 4/25/9
f 12/31/10 11/32/10 8/30/10 6/29/10

