# ProBuilder 4.0.5
# https://unity3d.com/unity/features/worldbuilding/probuilder
# 13/10/2020 3:59:44 PM

mtllib ./hutTemp.mtl
o hutTemp

g Cube
v -2.05 -9.41 372.08
v -26.41043 -9.41 379.2723
v -2.05 10.39 372.08
v -26.41043 10.39 379.2723
v -32.07367 -9.41 360.0909
v -32.07367 10.39 360.0909
v -7.713235 -9.41 352.8985
v -7.713235 10.39 352.8985

vt 0 0
vt -25.4 0
vt 0 19.8
vt -25.4 19.8
vt -20 0
vt -20 19.8
vt 25.4 0
vt 25.4 19.8
vt 20 0
vt 20 19.8
vt 0 -20
vt 25.4 -20
vt -25.4 -20

vn 0.2831618 0 0.9590722
vn -0.9590722 0 0.2831618
vn -0.2831618 0 -0.9590722
vn 0.9590722 0 -0.2831618
vn 0 1 0
vn 0 -1 0

g Cube
usemtl ProBuilderDefault
f 3/3/1 4/4/1 2/2/1 1/1/1
f 4/3/2 6/6/2 5/5/2 2/1/2
f 6/8/3 8/3/3 7/1/3 5/7/3
f 8/10/4 3/3/4 1/1/4 7/9/4
f 8/11/5 6/12/5 4/7/5 3/1/5
f 1/1/6 2/2/6 5/13/6 7/11/6

