# ProBuilder 4.0.5
# https://unity3d.com/unity/features/worldbuilding/probuilder
# 7/10/2020 1:33:58 PM

mtllib ./polygonRoom.mtl
o polygonRoom

g Cylinder
v -6.79 0 -66.73
v -6.79 1 -66.73
v -2.358115 0 -62.51633
v -2.358115 1 -62.51633
v 3.755219 0 -62.67062
v 3.755219 1 -62.67062
v 7.968894 0 -67.10251
v 7.968894 1 -67.10251
v 7.814597 0 -73.21584
v 7.814597 1 -73.21584
v 3.382714 0 -77.42952
v 3.382714 1 -77.42952
v -2.730622 0 -77.27522
v -2.730622 1 -77.27522
v -6.944297 0 -72.84334
v -6.944297 1 -72.84334
v 0.5122986 0 -69.97292
v -5.344169 1.5 -68.08341
v 0.2776379 1.5 -70.58003
v -1.932202 1.5 -64.83943
v 2.774258 1.5 -64.95823
v 6.018235 1.5 -68.37019
v 5.899446 1.5 -73.07665
v 2.487478 1.5 -76.32063
v -2.218984 1.5 -76.20184
v -5.462958 1.5 -72.78987
v -0.09475407 19.76117 -69.92845
v -0.229644 19.76104 -69.92446
v -0.1150551 19.77151 -69.97579
v -0.2208298 19.77139 -69.97253
v -0.001152876 19.761 -70.02579
v -0.0415214 19.77135 -70.05202
v -0.329851 19.76052 -70.0169
v -0.2999302 19.77087 -70.04491
v -0.3365326 19.75945 -70.15546
v -0.3058767 19.76979 -70.15436
v -0.2412357 19.75859 -70.25843
v -0.2306471 19.76894 -70.23622
v -0.1008689 19.75929 -70.26047
v -0.1193956 19.76964 -70.23752
v -0.002357042 19.76042 -70.16239
v -0.04199089 19.77076 -70.15951
v -7.102112 16.06485 -72.91357
v -2.809638 16.05658 -77.45499
v -5.620773 16.56485 -72.8601
v -5.468031 16.57532 -68.03635
v -2.298001 16.55658 -76.38161
v 3.438524 16.06334 -77.59799
v 2.54329 16.56334 -76.4891
v 7.936541 16.07431 -73.27847
v 6.02139 16.57431 -73.13927
v 8.071482 16.07999 -67.06702
v 6.120822 16.57999 -68.3347
v 3.795514 16.08162 -62.5804
v 2.814553 16.58162 -64.868
v -2.399341 16.08038 -62.4183
v -6.913862 16.07532 -66.68295
v -1.973428 16.58038 -64.7414
v 2.514437 0.8575931 -62.80707
v -1.251296 0.8575931 -62.71202
v 2.539258 10.14767 -62.75149
v -1.27669 10.1469 -62.65163
v -1.004479 1.169429 -64.7588
v 1.894637 1.169429 -64.83198
v -1.029875 10.45874 -64.69842
v 1.919458 10.4595 -64.7764
v -1.805583 19.197 -71.05962
v -0.3310751 19.19142 -72.62848
v -1.305901 19.36566 -71.04159
v -1.242926 19.37272 -69.37489
v -0.1584908 19.36007 -72.26641
v 1.82202 19.19598 -72.6729
v 1.520041 19.36464 -72.29885
v 3.361589 19.20338 -71.18015
v 2.715575 19.37204 -71.13319
v 3.400578 19.20722 -69.05182
v 2.742584 19.37588 -69.47942
v 1.937204 19.20831 -67.51994
v 1.60631 19.37697 -68.29159
v -0.1799281 19.20747 -67.46263
v -0.03625943 19.37613 -68.24625
v -1.73063 19.20406 -68.91837

vt 0 0
vt 0 1
vt 6.115281 0
vt 6.115281 1
vt 4.324157 0
vt 4.324157 1
vt 10.43944 0
vt 10.43944 1
vt -6.115279 0
vt -6.115279 1
vt -10.43944 0
vt -10.43944 1
vt -4.324157 0
vt -4.324157 1
vt 7.99 0
vt 2.340217 5.649783
vt -1.870699 -0.6500969
vt -8.021945 -0.6500969
vt -3.672357 3.699493
vt 7.99 7.99
vt -8.021945 5.501148
vt 13.63978 5.649783
vt -12.37153 3.699493
vt 15.98 -6.98508E-07
vt -14.17319 -0.6500969
vt 13.63978 -5.649783
vt -12.37153 -4.999687
vt 7.99 -7.99
vt -8.021945 -6.801346
vt 2.340218 -5.649784
vt -3.672358 -4.999687
vt -9.022206 -3.928858
vt -8.897722 -3.980963
vt -9.023719 -3.981375
vt -8.926049 -4.022113
vt -5.867936 -4.262069
vt -5.743304 -4.210072
vt -5.840916 -4.303236
vt -5.743099 -4.26261
vt -11.59714 -1.905677
vt -11.54438 -2.031384
vt -11.62634 -1.946213
vt -11.58443 -2.044896
vt -12.79772 1.667382
vt -12.84526 1.53705
vt -12.83776 1.653827
vt -12.87466 1.550606
vt -10.53775 6.444205
vt -10.66462 6.384303
vt -10.56668 6.458746
vt -10.66703 6.410885
vt -3.875562 7.4946
vt -4.002594 7.554352
vt -3.874419 7.521267
vt -3.974951 7.568939
vt -1.065957 2.176636
vt -1.113373 2.307313
vt -1.037797 2.190201
vt -1.074613 2.293752
vt -2.758706 -2.406573
vt -2.705739 -2.280656
vt -2.71993 -2.420086
vt -2.677798 -2.321202
vt -4.324157 1.046657
vt -10.43944 1.046657
vt -4.266311 16.11239
vt -10.51528 16.10431
vt 6.024459 1.4846
vt 1.316496 1.4846
vt 6.098645 16.55026
vt 1.272582 16.5604
vt 10.01407 1.538552
vt 5.306114 1.538552
vt 10.08991 16.59622
vt 5.248267 16.60427
vt -4.324157 1.125906
vt -10.43944 1.125906
vt -4.249702 16.18358
vt -10.49948 16.19016
vt 9.516511 1.603604
vt 4.808549 1.603604
vt 9.576555 16.66787
vt 4.734093 16.66127
vt 1.144235E-06 1.15729
vt -6.115278 1.15729
vt 0.07563713 16.22149
vt -6.160504 16.23212
vt 4.82323 1.614489
vt 0.115268 1.614489
vt 4.868456 16.68935
vt 0.03963334 16.67865
vt 6.115282 1.120903
vt -3.237413E-07 1.120903
vt 6.174808 16.19572
vt -0.03806963 16.20122
vt -1.316493 1.58656
vt -6.024456 1.58656
vt -1.278425 16.6669
vt -6.083983 16.66136
vt 10.43944 1.068375
vt 4.324157 1.068375
vt 10.4844 16.14869
vt 4.286536 16.15027
vt -5.306119 1.549361
vt -10.01408 1.549361
vt -5.268497 16.63126
vt -10.05904 16.62968
vt 6.115281 0.9999782
vt 0 0.9999782
vt 6.152951 16.08068
vt -0.05734263 16.07576
vt -0.1152736 1.484288
vt -4.823236 1.484288
vt -0.05793102 16.56008
vt -4.860905 16.56498
vt -6.115283 0.9999656
vt 0.04391497 16.0758
vt -6.189468 16.06559
vt -7.289814 8.449313
vt -1.916607 5.529499
vt -6.308017 7.665406
vt -2.998193 5.866838
vt 10.97374 16.09819
vt 10.92388 1.016328
vt 9.706335 10.16415
vt 9.675621 0.8739187
vt 3.634252 1.029138
vt 3.576654 16.10978
vt 4.758238 0.8867288
vt 4.722759 10.1762
vt 4.276335 16.22286
vt 10.47331 16.2241
vt 5.404707 10.28588
vt 9.221962 10.28665
vt 4.808548 0.8267827
vt 9.516507 0.8267828
vt 5.733941 0.4802335
vt 8.633981 0.4802336
vt -4.974385 16.59043
vt -5.006727 1.509713
vt -5.918021 10.46865
vt -5.937944 1.179135
vt -9.208197 1.519732
vt -9.235043 16.60165
vt -8.319564 1.189155
vt -8.3361 10.47941
vt -9.551988 16.55714
vt -4.762332 16.55589
vt -8.654784 10.43464
vt -5.70442 10.43388
vt -5.835579 2.233246
vt -11.44747 -0.5156862
vt -10.53119 6.620947
vt -12.46179 5.667913
vt 11.64445 -2.448039
vt 10.09626 2.123074
vt 15.83839 1.042015
vt 15.31322 2.625073
vt 11.73691 0.9777316
vt 7.40147 3.133166
vt 12.68187 6.31431
vt 11.18195 7.067322
vt -3.92507 1.633133
vt -9.524973 4.408221
vt -3.473859 7.883105
vt -5.401118 8.844086
vt 7.956409 5.479154
vt 3.631585 3.300714
vt 4.704218 9.463594
vt 3.207203 8.703668
vt -3.240132 -1.224956
vt -5.238797 4.682319
vt 1.364704 2.709325
vt 0.6874508 4.744013
vt 2.321332 4.313531
vt 0.8323755 -0.2801195
vt -2.424733 4.818453
vt -2.929725 3.226887
vt -5.149609 -4.789041
vt -3.113217 1.080667
vt 0.776633 -4.726702
vt 1.481012 -2.717934
vt -0.2446416 -1.463619
vt 1.232203 -6.036673
vt -4.028396 -3.958221
vt -3.513683 -5.530087
vt -9.384808 -4.693307
vt -3.828356 -1.947502
vt -5.263586 -9.000491
vt -3.363271 -8.064058
vt 2.428469 -6.569569
vt 6.635139 -8.861581
vt 1.824396 -11.11158
vt 3.268905 -11.8961
vt -11.51778 0.2828639
vt -5.947717 -2.433182
vt -12.54443 -5.764828
vt -10.63997 -6.691425
vt 8.332047 -5.525992
vt 12.56213 -3.27939
vt 12.20835 -8.497035
vt 13.66039 -7.727829
vt -9.795571 3.038858
vt -7.700202 -2.807304
vt -14.87755 -0.7457691
vt -14.15375 -2.74576
vt 10.63588 -3.533055
vt 12.18377 1.013705
vt 15.8526 -3.028544
vt 16.39107 -1.466512
vt -7.651311 2.751169
vt -9.709682 -3.132643
vt -14.10485 2.813074
vt -14.80236 0.7872096
vt -8.680454 3.487783
vt -10.6483 2.614227
vt -9.719166 4.975412
vt -9.846918 4.917416
vt 13.24428 0.5856076
vt 12.66888 2.151112
vt 13.90607 1.815477
vt 13.87005 1.919008
vt 10.46006 2.615821
vt 8.924996 3.294307
vt 9.622515 4.511226
vt 9.521296 4.557231
vt -6.532001 1.57105
vt -8.509298 2.42434
vt -5.604594 3.826445
vt -5.733118 3.882918
vt 8.362608 1.989594
vt 6.820156 1.326733
vt 6.003701 3.22912
vt 5.901844 3.184353
vt -6.948907 -0.4773329
vt -7.737722 1.51676
vt -4.156818 0.9505585
vt -4.206159 1.080521
vt 7.655329 1.086025
vt 7.042958 -0.4673952
vt 4.712809 0.8562633
vt 4.674273 0.7533399
vt -8.07321 -1.214928
vt -7.253838 0.7497448
vt -4.541617 -1.650928
vt -4.487806 -1.52537
vt 7.196101 0.2628146
vt 7.837531 -1.261741
vt 4.852105 -1.392843
vt 4.895002 -1.491397
vt -8.936234 -1.199992
vt -6.981461 -0.3833133
vt -6.191415 -3.500654
vt -6.066635 -3.449013
vt 7.075521 -1.007103
vt 8.59318 -1.638599
vt 6.162888 -3.270376
vt 6.26085 -3.310651
vt -9.912333 -0.9725021
vt -7.961294 -1.796506
vt -9.08343 -4.06254
vt -8.958979 -4.114725
vt 8.448798 -2.523351
vt 9.962698 -1.884448
vt 9.013155 -4.212097
vt 9.110786 -4.171269
vt -11.46424 0.07274436
vt -10.66997 -1.900319
vt -12.53486 -2.212707
vt -12.48281 -2.338714
vt 11.81265 -2.271188
vt 12.42706 -0.737436
vt 13.01394 -2.502683
vt 13.05493 -2.403614
vt -11.6889 2.295412
vt -12.4398 0.2887204
vt -13.50144 1.855736
vt -13.54825 1.72514

vn -0.9139298 0 0.4058723
vn -0.3592508 0 0.9332411
vn 0.4058724 0 0.9139298
vn 0.9332411 0 0.3592508
vn 0.9139298 0 -0.4058723
vn 0.3592509 0 -0.9332411
vn -0.4058723 0 -0.9139298
vn -0.933241 0 -0.3592509
vn 0 -1 0
vn 0 1 0
vn 0.005325938 0.977396 0.2113497
vn 0.1548186 0.9769179 0.1471825
vn -0.1689403 0.9694753 0.1776984
vn -0.3200077 0.9473805 0.008075776
vn -0.2975574 0.9118178 -0.2829274
vn -0.01056123 0.9083136 -0.4181565
vn 0.2287653 0.9432743 -0.2406242
vn 0.2521689 0.9676624 -0.006357602
vn -0.7246806 -0.01080341 -0.6890002
vn -0.7256925 -0.01140898 -0.6879228
vn -0.7267043 -0.01201456 -0.6868454
vn 0.9996281 0.01035423 -0.02523019
vn 0.999546 0.009332435 -0.02844799
vn 0.9994639 0.008310637 -0.03166579
vn 0.7246706 0.01202963 0.6889904
vn 0.7259869 0.0114238 0.6876107
vn 0.7273032 0.01081798 0.686231
vn -0.0252296 -0.01206762 -0.9996088
vn -0.024048 -0.01158172 -0.9996429
vn -0.0228664 -0.01109583 -0.999677
vn 0.02522991 0.01108635 0.9996202
vn 0.02370363 0.01156946 0.9996508
vn 0.02217741 0.01205257 0.9996814
vn 0.6890013 -0.01065776 -0.7246817
vn 0.6908187 -0.009628552 -0.7229588
vn 0.6926362 -0.008599344 -0.7212359
vn -0.6890153 0.008584502 0.724696
vn -0.6913466 0.009604754 0.7224515
vn -0.693678 0.01062501 0.7202069
vn 0.9996481 -0.008191519 -0.02523058
vn 0.9996948 -0.007470769 -0.02347166
vn 0.9997415 -0.006750018 -0.02171271
vn -0.9996589 0.006741152 0.02523094
vn -0.9997059 0.007457327 0.02295565
vn -0.9997528 0.008173502 0.02068033
vn 0.7247074 -0.006551784 0.6890256
vn 0.7242945 -0.006306459 0.6894616
vn 0.7238815 -0.006061134 0.6898977
vn -0.7247092 0.006058261 -0.6890283
vn -0.7241724 0.006302672 -0.6895897
vn -0.7236356 0.006547083 -0.6901512
vn -0.6890254 -0.006594667 0.7247072
vn -0.6878514 -0.007252754 0.7258133
vn -0.6866773 -0.00791084 0.7269194
vn 0.689019 0.007923152 -0.7247
vn 0.6875082 0.007264076 -0.726137
vn 0.6859974 0.006605 -0.7275739
vn -0.9996473 -0.008292057 0.02523049
vn -0.9995686 -0.009310801 0.0277231
vn -0.99949 -0.01032955 0.03021572
vn -0.01633161 0.7622592 -0.6470659
vn -0.1086615 -0.005656362 0.9940627
vn 0.1733659 -0.005928128 0.9848397
vn 0.02615068 -0.03434145 0.999068
vn 0.02406874 0.3001466 0.9535894
vn 0.08896076 0.006717838 -0.9960125
vn -0.1443902 0.006305283 -0.9895008
vn -0.02642741 -0.0110927 -0.9995892
vn -0.378594 0.852938 -0.3593931
vn -0.379021 0.8528042 -0.3592604
vn 0.5490036 -0.8356749 -0.01557065
vn 0.5485954 -0.8359271 -0.01637008
vn 0.5481873 -0.8361793 -0.01716952
vn 0.3908329 -0.842491 0.370754
vn 0.390917 -0.8425893 0.3704419
vn 0.3910012 -0.8426874 0.3701297
vn -0.0132654 0.8416583 -0.5398476
vn -0.01291768 0.8417826 -0.5396621
vn 0.01354694 -0.8297272 0.5580047
vn 0.01329695 -0.8296224 0.5581665
vn 0.3843536 0.8308968 -0.4023465
vn 0.3845509 0.8311464 -0.4016411
vn 0.3847482 0.831396 -0.4009357
vn -0.4145636 -0.8003724 0.4330602
vn -0.4157166 -0.7998899 0.4328443
vn -0.4168697 -0.7994075 0.4326284
vn 0.560446 0.82809 -0.01293319
vn 0.5600926 0.8283378 -0.01234022
vn 0.5597391 0.8285857 -0.01174725
vn -0.6403606 -0.7679439 0.01416079
vn -0.6409886 -0.7674358 0.0132093
vn -0.6416165 -0.7669277 0.01225777
vn 0.398138 0.8353063 0.3791431
vn 0.3978893 0.8353978 0.3792024
vn -0.4731861 -0.7568048 -0.4509339
vn -0.4730806 -0.7566282 -0.4513406
vn -0.472975 -0.7564516 -0.4517472
vn 0.01372794 0.8471956 0.5311038
vn 0.01404754 0.8470687 0.5312977
vn -0.0164307 -0.7771989 -0.6290404
vn -0.01669544 -0.7773038 -0.6289038
vn -0.3549792 0.8564715 0.3747618
vn -0.3548366 0.8562973 0.3752941
vn -0.3546939 0.8561231 0.3758265
vn 0.4021271 -0.8108377 -0.4252483
vn 0.4013416 -0.8110836 -0.4255203
vn 0.4005561 -0.8113295 -0.4257924
vn -0.5122834 0.8587018 0.01403538
vn -0.5125786 0.8585163 0.01457809
vn -0.5128738 0.8583308 0.01512078
vn -0.2287882 0.9486602 -0.218403
vn -0.2281814 0.9487991 -0.2184335
vn -0.2275746 0.948938 -0.2184641
vn 0.3826924 -0.9238156 -0.01054501
vn 0.382288 -0.9239762 -0.01111301
vn 0.3818835 -0.9241367 -0.01168102
vn 0.2090521 -0.9571919 0.2002022
vn 0.2086354 -0.9571685 0.2007467
vn 0.2082188 -0.9571451 0.2012913
vn -0.006857947 0.9725753 -0.2324872
vn -0.007528423 0.9724404 -0.2330287
vn -0.008198899 0.9723054 -0.2335702
vn 0.006488341 -0.9802313 0.1977487
vn 0.007455107 -0.9802278 0.1977294
vn 0.008421875 -0.9802244 0.1977101
vn 0.1229497 0.9836379 -0.1316811
vn 0.1226074 0.9835163 -0.1328963
vn 0.1222651 0.9833948 -0.1341116
vn -0.1032829 -0.9883032 0.112203
vn -0.1019621 -0.9883285 0.1131722
vn -0.1006413 -0.9883537 0.1141413
vn 0.1619659 0.9867849 -0.004745461
vn 0.1621087 0.9867591 -0.005195968
vn 0.1622515 0.9867333 -0.005646476
vn -0.1415625 -0.9899186 0.00460799
vn -0.1412928 -0.9899533 0.005308673
vn -0.1410231 -0.9899881 0.006009351
vn 0.1260432 0.9847763 0.119703
vn -0.1172961 -0.986841 -0.111295
vn 0.005549924 0.9756482 0.219271
vn -0.00564792 -0.9748914 -0.2226091
vn -0.2073097 0.9535393 0.2185989
vn -0.2069981 0.9535047 0.2190447
vn 0.2275659 -0.9436103 -0.240444
vn 0.2268264 -0.9438048 -0.2403783
vn 0.2260869 -0.9439993 -0.2403125
vn -0.3626445 0.9318779 0.009619462
vn -0.3630439 0.9317154 0.01027265

g Cylinder
usemtl ProBuilderDefault
f 1/1/9 17/15/9 3/16/9
f 3/16/9 17/15/9 5/20/9
f 5/20/9 17/15/9 7/22/9
f 7/22/9 17/15/9 9/24/9
f 9/24/9 17/15/9 11/26/9
f 11/26/9 17/15/9 13/28/9
f 13/28/9 17/15/9 15/30/9
f 15/30/9 17/15/9 1/1/9
f 20/19/10 19/18/10 18/17/10
f 21/21/10 19/18/10 20/19/10
f 22/23/10 19/18/10 21/21/10
f 23/25/10 19/18/10 22/23/10
f 24/27/10 19/18/10 23/25/10
f 25/29/10 19/18/10 24/27/10
f 26/31/10 19/18/10 25/29/10
f 18/17/10 19/18/10 26/31/10
f 4/4/2 2/2/1 1/1/1
f 1/1/1 3/3/2 4/4/2
f 6/8/3 4/6/2 3/5/2
f 3/5/2 5/7/3 6/8/3
f 8/8/4 6/6/3 5/5/3
f 5/5/3 7/7/4 8/8/4
f 10/4/5 8/2/4 7/1/4
f 7/1/4 9/3/5 10/4/5
f 12/2/6 10/10/5 9/9/5
f 9/9/5 11/1/6 12/2/6
f 14/14/7 12/12/6 11/11/6
f 11/11/6 13/13/7 14/14/7
f 16/14/8 14/12/7 13/11/7
f 13/11/7 15/13/8 16/14/8
f 2/2/1 16/10/8 15/9/8
f 15/9/8 1/1/1 2/2/1
f 30/35/11 28/33/11 27/32/11
f 27/32/11 29/34/11 30/35/11
f 29/39/12 27/37/12 31/36/12
f 31/36/12 32/38/12 29/39/12
f 34/43/13 33/41/13 28/40/13
f 28/40/13 30/42/13 34/43/13
f 36/47/14 35/45/14 33/44/14
f 33/44/14 34/46/14 36/47/14
f 38/51/15 37/49/15 35/48/15
f 35/48/15 36/50/15 38/51/15
f 40/55/16 39/53/16 37/52/16
f 37/52/16 38/54/16 40/55/16
f 42/59/17 41/57/17 39/56/17
f 39/56/17 40/58/17 42/59/17
f 32/63/18 31/61/18 41/60/18
f 41/60/18 42/62/18 32/63/18
f 44/67/21 14/65/20 16/64/19
f 16/64/19 43/66/20 44/67/21
f 46/71/24 18/69/23 26/68/22
f 26/68/22 45/70/23 46/71/24
f 45/75/27 26/73/26 25/72/25
f 25/72/25 47/74/26 45/75/27
f 48/79/30 12/77/29 14/76/28
f 14/76/28 44/78/29 48/79/30
f 47/83/33 25/81/32 24/80/31
f 24/80/31 49/82/32 47/83/33
f 50/87/36 10/85/35 12/84/34
f 12/84/34 48/86/35 50/87/36
f 49/91/39 24/89/38 23/88/37
f 23/88/37 51/90/38 49/91/39
f 52/95/42 8/93/41 10/92/40
f 10/92/40 50/94/41 52/95/42
f 51/99/45 23/97/44 22/96/43
f 22/96/43 53/98/44 51/99/45
f 54/103/48 6/101/47 8/100/46
f 8/100/46 52/102/47 54/103/48
f 53/107/51 22/105/50 21/104/49
f 21/104/49 55/106/50 53/107/51
f 57/111/54 2/109/53 4/108/52
f 4/108/52 56/110/53 57/111/54
f 58/115/57 20/113/56 18/112/55
f 18/112/55 46/114/56 58/115/57
f 43/118/60 16/116/59 2/109/58
f 2/109/58 57/117/59 43/118/60
f 60/122/61 4/120/61 6/119/61
f 6/119/61 59/121/61 60/122/61
f 59/126/62 6/124/62 54/123/62
f 54/123/62 61/125/62 59/126/62
f 62/130/63 56/128/63 4/127/63
f 4/127/63 60/129/63 62/130/63
f 61/134/64 54/132/64 56/131/64
f 56/131/64 62/133/64 61/134/64
f 64/138/65 21/136/65 20/135/65
f 20/135/65 63/137/65 64/138/65
f 63/142/66 20/140/66 58/139/66
f 58/139/66 65/141/66 63/142/66
f 66/146/67 55/144/67 21/143/67
f 21/143/67 64/145/67 66/146/67
f 65/150/68 58/148/68 55/147/68
f 55/147/68 66/149/68 65/150/68
f 68/154/70 44/152/69 43/151/69
f 43/151/69 67/153/69 68/154/70
f 70/158/73 46/156/72 45/155/71
f 45/155/71 69/157/72 70/158/73
f 69/162/76 45/160/75 47/159/74
f 47/159/74 71/161/75 69/162/76
f 72/166/78 48/164/77 44/163/77
f 44/163/77 68/165/77 72/166/78
f 71/170/80 47/168/80 49/167/79
f 49/167/79 73/169/80 71/170/80
f 74/174/83 50/172/82 48/171/81
f 48/171/81 72/173/82 74/174/83
f 73/178/86 49/176/85 51/175/84
f 51/175/84 75/177/85 73/178/86
f 76/182/89 52/180/88 50/179/87
f 50/179/87 74/181/88 76/182/89
f 75/186/92 51/184/91 53/183/90
f 53/183/90 77/185/91 75/186/92
f 78/190/94 54/188/94 52/187/93
f 52/187/93 76/189/94 78/190/94
f 77/194/97 53/192/96 55/191/95
f 55/191/95 79/193/96 77/194/97
f 80/198/99 56/196/98 54/195/98
f 54/195/98 78/197/98 80/198/99
f 79/202/101 55/200/101 58/199/100
f 58/199/100 81/201/101 79/202/101
f 82/206/104 57/204/103 56/203/102
f 56/203/102 80/205/103 82/206/104
f 81/210/107 58/208/106 46/207/105
f 46/207/105 70/209/106 81/210/107
f 67/214/110 43/212/109 57/211/108
f 57/211/108 82/213/109 67/214/110
f 37/218/113 68/216/112 67/215/111
f 67/215/111 35/217/112 37/218/113
f 34/222/116 70/220/115 69/219/114
f 69/219/114 36/221/115 34/222/116
f 36/226/119 69/224/118 71/223/117
f 71/223/117 38/225/118 36/226/119
f 39/230/122 72/228/121 68/227/120
f 68/227/120 37/229/121 39/230/122
f 38/234/125 71/232/124 73/231/123
f 73/231/123 40/233/124 38/234/125
f 41/238/128 74/236/127 72/235/126
f 72/235/126 39/237/127 41/238/128
f 40/242/131 73/240/130 75/239/129
f 75/239/129 42/241/130 40/242/131
f 31/246/134 76/244/133 74/243/132
f 74/243/132 41/245/133 31/246/134
f 42/250/137 75/248/136 77/247/135
f 77/247/135 32/249/136 42/250/137
f 27/254/138 78/252/138 76/251/138
f 76/251/138 31/253/138 27/254/138
f 32/258/139 77/256/139 79/255/139
f 79/255/139 29/257/139 32/258/139
f 28/262/140 80/260/140 78/259/140
f 78/259/140 27/261/140 28/262/140
f 29/266/141 79/264/141 81/263/141
f 81/263/141 30/265/141 29/266/141
f 33/270/143 82/268/142 80/267/142
f 80/267/142 28/269/142 33/270/143
f 30/274/146 81/272/145 70/271/144
f 70/271/144 34/273/145 30/274/146
f 35/278/148 67/276/147 82/275/147
f 82/275/147 33/277/147 35/278/148

