# ProBuilder 4.0.5
# https://unity3d.com/unity/features/worldbuilding/probuilder
# 24/08/2020 10:45:08 AM

mtllib ./spaceship_lookalike.mtl
o spaceship lookalike

g Cube
v 68.00002 -74.28673 295.3
v 48.00002 -74.28673 295.3
v 68.00002 -54.28673 295.3
v 48.00002 -54.28673 295.3
v 48.00002 -74.28673 275.3
v 48.00002 -54.28673 275.3
v 68.00002 -74.28673 275.3
v 68.00002 -54.28673 275.3
v 60.17896 -47.01395 287.4789
v 55.82107 -47.01395 287.4789
v 60.17896 -47.01395 283.121
v 55.82107 -47.01395 283.121

vt 0 0
vt -20 0
vt 0 20
vt -20 20
vt 20 0
vt 20 20
vt 7.821053 -7.821045
vt 12.17895 -7.821045
vt 7.821053 -12.17896
vt 12.17895 -12.17896
vt 0 -20
vt -20 -20
vt 0 -13.61946
vt 20 -13.61946
vt 7.821053 -24.29944
vt 12.17895 -24.29944
vt 13.61945 -20
vt 13.61945 0
vt 24.29944 -12.17896
vt 24.29944 -7.821045
vt 1.026733 0
vt 1.026733 -20
vt -9.653255 -7.821045
vt -9.653255 -12.17896
vt 20 -1.02672
vt 0 -1.02672
vt 12.17895 9.653263
vt 7.821053 9.653263

vn 0 0 1
vn -1 0 0
vn 0 0 -1
vn 1 0 0
vn 0 1 0
vn 0 -1 0
vn 0 0.7323087 0.6809728
vn 0.6809724 0.732309 0
vn -0.6809724 0.732309 0
vn 0 0.7323087 -0.6809728

g Cube
usemtl ProBuilderDefault
f 3/3/1 4/4/1 2/2/1 1/1/1
f 4/3/2 6/4/2 5/2/2 2/1/2
f 6/6/3 8/3/3 7/1/3 5/5/3
f 8/6/4 3/3/4 1/1/4 7/5/4
f 11/9/5 12/10/5 10/8/5 9/7/5
f 1/1/6 2/2/6 5/12/6 7/11/6
f 9/15/7 10/16/7 4/14/7 3/13/7
f 11/19/8 9/20/8 3/18/8 8/17/8
f 10/23/9 12/24/9 6/22/9 4/21/9
f 12/27/10 11/28/10 8/26/10 6/25/10

